<?xml version="1.0" encoding="UTF-8"?>
<svg width="24px" height="24px" viewBox="0 0 24 24" version="1.1" xmlns="http://www.w3.org/2000/svg" xmlns:xlink="http://www.w3.org/1999/xlink">
    <!-- Generator: Sketch 63.1 (92452) - https://sketch.com -->
    <title>MICHELIN / Icons / Stars / 1-Star</title>
    <desc>Created with Sketch.</desc>
    <g id="MICHELIN-/-Icons-/-Stars-/-1-Star" stroke="none" stroke-width="1" fill="none" fill-rule="evenodd">
        <path d="M11.9805,3.192 C13.7565,3.192 14.9085,4.416 14.9085,6.336 L14.9085,6.336 L14.9085,6.72 L14.8605,7.008 C15.8205,6.336 16.4205,6.096 17.2125,6.096 C18.7245,6.096 20.0445,7.536 20.0445,9.144 C20.0445,10.272 19.2285,11.328 18.0045,11.88 L18.0045,11.88 L17.7405,12 C19.3245,12.72 20.0445,13.608 20.0445,14.832 C20.0445,16.464 18.7245,17.88 17.2125,17.88 C16.5645,17.88 15.6765,17.616 15.1005,17.16 L15.1005,17.16 L14.8605,16.968 C14.8845,17.304 14.9085,17.592 14.9085,17.832 C14.9085,19.56 13.6845,20.808 11.9805,20.808 C10.2045,20.808 9.0525,19.56 9.0525,17.664 C9.0525,17.424 9.0525,17.376 9.0765,17.28 L9.0765,17.28 L9.1005,16.968 C8.1405,17.64 7.5165,17.88 6.7485,17.88 C5.2365,17.88 3.9165,16.464 3.9165,14.832 C3.9165,13.704 4.7325,12.672 5.9565,12.12 L5.9565,12.12 L6.2205,12 C4.6365,11.28 3.9165,10.392 3.9165,9.144 C3.9165,7.512 5.2365,6.096 6.7725,6.096 C7.4205,6.096 8.2365,6.408 8.8605,6.84 L8.8605,6.84 L9.1005,7.008 C9.0765,6.672 9.0525,6.408 9.0525,6.168 C9.0525,4.44 10.2765,3.192 11.9805,3.192 Z M11.9805,4.128 C10.7565,4.128 9.9885,4.944 9.9885,6.264 C9.9885,7.248 10.3245,8.376 10.9965,9.768 L10.9965,9.768 L10.5405,10.032 C9.1965,8.04 7.9245,7.032 6.7485,7.032 C5.7645,7.032 4.8525,8.04 4.8525,9.144 C4.8525,10.584 6.5085,11.496 9.5565,11.736 L9.5565,11.736 L9.5565,12.24 C6.5565,12.48 4.8525,13.416 4.8525,14.832 C4.8525,15.936 5.7645,16.944 6.7485,16.944 C7.9245,16.944 9.1965,15.936 10.5405,13.968 L10.5405,13.968 L10.9965,14.208 C10.3245,15.6 9.9885,16.752 9.9885,17.736 C9.9885,19.056 10.7565,19.872 11.9805,19.872 C13.2285,19.872 13.9725,19.056 13.9725,17.712 C13.9725,16.752 13.6365,15.6 12.9645,14.208 L12.9645,14.208 L13.4205,13.968 C14.7645,15.936 16.0605,16.944 17.2125,16.944 C18.1965,16.944 19.1085,15.936 19.1085,14.832 C19.1085,13.416 17.4045,12.48 14.4045,12.24 L14.4045,12.24 L14.4045,11.736 C17.4285,11.496 19.1085,10.584 19.1085,9.144 C19.1085,8.04 18.2205,7.032 17.2125,7.032 C16.0605,7.032 14.7645,8.04 13.4205,10.032 L13.4205,10.032 L12.9645,9.768 C13.6365,8.4 13.9725,7.248 13.9725,6.312 C13.9725,4.944 13.2285,4.128 11.9805,4.128 Z" id="Shape" fill="#BD2333" fill-rule="nonzero"></path>
    </g>
</svg>